<?xml version="1.0" standalone="no"?>
<!DOCTYPE svg PUBLIC "-//W3C//DTD SVG 20010904//EN"
 "http://www.w3.org/TR/2001/REC-SVG-20010904/DTD/svg10.dtd">
<svg version="1.0" xmlns="http://www.w3.org/2000/svg"
 width="430.000000pt" height="430.000000pt" viewBox="0 0 430.000000 430.000000"
 preserveAspectRatio="xMidYMid meet">
<metadata>
Created by potrace 1.14, written by Peter Selinger 2001-2017
</metadata>
<g transform="translate(0.000000,430.000000) scale(0.100000,-0.100000)"
fill="#000000" stroke="none">
<path d="M2 3209 l3 -1072 35 -12 c90 -31 195 -84 315 -158 112 -69 128 -79
239 -152 102 -67 132 -79 122 -47 -14 42 -66 318 -66 347 0 17 -4 35 -10 41
-9 9 -50 202 -50 240 0 21 39 63 77 83 35 18 71 13 87 -11 20 -33 96 -243 99
-278 2 -16 11 -38 19 -47 9 -10 35 -72 58 -138 23 -66 80 -215 126 -332 46
-117 86 -224 90 -238 7 -30 22 -31 72 -6 118 60 272 80 272 35 0 -12 -24 -18
-67 -17 -7 1 -13 -5 -13 -13 0 -8 -6 -11 -16 -7 -12 4 -15 2 -12 -8 5 -15 -14
-39 -31 -39 -6 0 -11 -4 -11 -9 0 -5 -10 -7 -22 -3 -20 5 -21 3 -10 -10 8 -10
9 -18 3 -22 -6 -4 -8 -13 -4 -21 3 -8 1 -15 -5 -15 -5 0 -12 -11 -14 -25 -6
-28 11 -32 66 -16 49 15 115 30 201 47 44 8 90 18 103 20 13 3 20 9 17 14 -3
6 -2 17 3 27 11 19 -3 38 -39 51 -19 7 -15 10 27 21 65 17 76 23 94 57 9 16
24 31 34 32 15 3 16 -2 11 -35 -4 -21 -9 -45 -12 -53 -4 -8 -7 -18 -7 -22 -1
-3 -4 -10 -8 -14 -5 -4 -8 -18 -8 -30 0 -13 -4 -26 -10 -29 -23 -14 -7 -25 39
-25 27 0 56 -6 63 -13 7 -7 21 -16 30 -19 20 -8 88 9 88 22 0 6 15 10 33 10
47 0 77 10 77 26 0 10 -14 14 -47 14 -63 0 -48 11 19 14 l53 2 -3 36 c-2 33 0
37 25 40 29 3 51 32 153 202 l53 89 -12 46 c-21 80 -27 80 -102 -1 -37 -40
-65 -77 -62 -82 3 -5 1 -6 -5 -2 -7 4 -12 2 -12 -3 0 -6 -11 -11 -24 -11 -24
0 -50 24 -188 169 -54 56 -74 71 -97 71 -24 0 -29 -5 -35 -32 -3 -17 -2 -34 2
-37 14 -10 22 -41 10 -41 -7 0 -9 -25 -5 -80 6 -94 -2 -100 -59 -44 -63 63
-151 222 -169 304 -12 53 -66 193 -81 210 -33 35 1 -173 35 -214 12 -15 59
-181 64 -231 3 -22 17 -75 31 -118 14 -42 26 -84 26 -92 0 -8 3 -15 8 -15 4 0
7 -18 7 -40 1 -31 -3 -40 -15 -40 -27 0 -46 30 -79 124 -18 50 -36 95 -40 100
-5 6 -19 36 -32 66 -13 30 -35 66 -49 80 -27 26 -90 164 -90 197 0 15 2 16 11
3 14 -20 2 42 -17 88 -7 18 -16 66 -20 107 -7 74 -7 75 -35 75 -35 0 -62 33
-78 97 -37 143 -29 134 -232 271 -612 415 -589 397 -589 437 0 79 66 74 434
-29 71 -20 140 -36 154 -36 l24 0 -7 578 -7 579 27 21 c38 30 99 30 119 0 22
-34 60 -236 127 -666 13 -83 13 -84 -19 -181 -29 -88 -32 -106 -26 -170 4 -40
11 -70 17 -68 5 1 17 27 27 57 9 30 29 82 45 114 15 33 34 78 42 100 12 37 13
37 8 8 -8 -56 13 -26 25 36 8 38 20 65 38 82 22 21 25 21 18 5 -22 -57 -85
-299 -91 -350 -5 -33 -16 -89 -27 -125 -17 -61 -17 -66 -1 -77 9 -7 24 -13 33
-13 10 0 31 -13 47 -29 31 -29 31 -30 29 -131 l-1 -102 52 -2 c79 -3 88 -24
16 -35 -32 -5 -38 -10 -38 -31 0 -32 43 -54 87 -45 29 7 30 8 24 49 -9 52 -9
56 -1 84 5 16 3 22 -7 22 -9 0 -24 12 -34 26 -10 15 -25 32 -32 38 -7 6 -23
20 -34 30 l-21 19 24 9 c13 5 36 8 52 5 15 -2 27 0 27 5 0 5 8 7 18 4 75 -21
79 -20 94 25 16 47 46 68 154 109 91 33 134 59 144 85 5 14 14 25 20 25 20 0
10 21 -15 30 -14 5 -27 15 -29 22 -3 7 -19 60 -36 118 -45 146 -68 210 -91
248 l-19 34 50 45 c27 25 50 49 50 53 0 16 -99 112 -109 106 -5 -4 -12 -2 -15
3 -3 5 -15 7 -26 4 -15 -4 -20 0 -20 13 -1 18 -1 18 -11 2 -5 -10 -15 -18 -20
-18 -6 0 -7 5 -4 10 3 6 -1 10 -9 10 -9 0 -15 -3 -14 -7 4 -11 -35 -48 -80
-77 -21 -13 -44 -38 -51 -54 -13 -32 -35 -47 -53 -36 -5 4 -1 15 10 28 11 11
25 32 32 45 7 14 17 30 22 35 38 46 88 131 88 150 0 51 157 171 269 206 107
34 236 23 379 -32 42 -16 83 -30 90 -31 9 -1 28 39 53 112 21 63 39 118 39
123 0 4 -556 8 -1235 8 l-1235 0 2 -1071z m1389 260 c-5 -13 -10 -19 -10 -12
-1 15 10 45 15 40 3 -2 0 -15 -5 -28z m285 -334 c8 -30 -3 -46 -16 -25 -8 13
-10 12 -10 -3 0 -10 6 -20 14 -23 8 -3 14 -18 14 -33 -1 -27 -4 -28 -77 -40
-105 -15 -117 -15 -101 4 11 13 9 20 -9 39 -16 17 -22 33 -19 57 3 33 5 34 53
40 28 3 71 7 97 7 43 2 48 0 54 -23z m329 -1675 c-3 -5 -1 -10 5 -10 6 0 9 -4
6 -9 -4 -5 0 -11 6 -14 23 -8 -1 -20 -27 -13 -24 6 -25 7 -9 31 15 23 33 37
19 15z m-75 -40 c-20 -13 -43 -13 -35 0 3 6 16 10 28 10 18 0 19 -2 7 -10z"/>
<path d="M2651 4203 c-7 -43 -19 -116 -27 -163 -22 -135 -23 -134 54 -216 85
-91 147 -165 154 -184 3 -9 18 -22 34 -30 16 -8 56 -32 89 -53 69 -44 85 -44
183 -2 35 14 88 31 118 38 61 13 77 4 89 -44 5 -21 0 -31 -27 -52 -46 -38
-107 -77 -118 -77 -6 0 -10 -4 -10 -8 0 -5 37 -15 82 -24 l81 -15 166 77 c91
42 202 95 246 117 97 49 172 73 209 66 32 -6 45 -30 76 -139 l23 -81 -29 -39
c-16 -22 -54 -66 -86 -99 -31 -33 -71 -77 -89 -98 -18 -21 -60 -67 -94 -101
-33 -35 -89 -92 -124 -129 -34 -36 -60 -70 -56 -76 3 -7 0 -8 -9 -5 -9 4 -18
-1 -22 -10 -3 -9 -15 -16 -25 -16 -11 0 -36 -7 -55 -15 -50 -21 -66 -8 -92 72
-12 39 -33 80 -47 93 -14 13 -25 34 -25 46 0 48 -7 52 -83 48 -118 -7 -154
-14 -170 -32 -13 -15 -137 -265 -137 -277 0 -2 -13 -26 -30 -52 -28 -43 -39
-83 -24 -83 4 0 24 16 45 35 32 28 47 35 82 35 43 0 107 -30 107 -50 0 -11 -7
-27 -85 -195 -45 -95 -47 -110 -25 -150 20 -35 19 -35 148 7 51 16 102 30 113
31 13 1 30 17 44 42 30 50 125 311 125 341 0 57 14 63 89 39 25 -8 58 -17 72
-20 15 -3 30 -12 33 -21 12 -31 -72 -304 -93 -304 -3 0 -14 -21 -24 -48 -33
-85 -47 -112 -57 -112 -5 0 -10 -8 -10 -19 0 -10 -9 -30 -20 -44 -11 -14 -20
-29 -20 -35 0 -16 -40 -46 -66 -50 -14 -1 -35 -11 -45 -21 -12 -11 -42 -21
-74 -24 -30 -3 -62 -13 -71 -21 -19 -19 -28 -21 -18 -3 6 9 4 9 -7 1 -8 -6
-27 -14 -42 -18 -15 -4 -25 -11 -22 -16 3 -6 -6 -10 -20 -10 -14 0 -47 -9 -73
-20 -26 -11 -78 -30 -117 -43 -68 -23 -70 -25 -83 -68 -8 -24 -25 -69 -39 -99
-14 -30 -34 -80 -45 -110 -12 -30 -28 -66 -37 -80 -23 -34 -41 -77 -41 -97 0
-9 -7 -21 -15 -27 -14 -10 -43 -77 -66 -150 -5 -16 -13 -33 -19 -36 -6 -4 -13
-20 -16 -36 -6 -36 -5 -34 -51 -45 -21 -6 -42 -11 -48 -13 -5 -1 -28 -6 -50
-11 -41 -8 -58 -22 -180 -144 -87 -87 -115 -117 -115 -125 0 -14 21 -4 54 24
18 17 49 36 67 44 33 14 40 16 57 16 4 0 1 4 -6 9 -10 6 -9 10 7 14 17 4 21 1
21 -18 0 -16 19 -40 61 -76 52 -46 59 -56 54 -79 -4 -14 -13 -32 -21 -41 -8
-9 -13 -27 -12 -42 2 -24 3 -25 20 -10 10 9 18 22 18 28 0 13 45 29 58 21 4
-2 26 -1 50 4 39 7 58 -2 30 -13 -7 -3 -4 -6 7 -7 42 -2 -14 -21 -65 -22 -34
-1 -50 -6 -50 -15 0 -7 -10 -13 -22 -13 -13 0 -34 -3 -47 -7 -14 -3 -22 -2
-19 3 3 5 0 15 -8 22 -8 7 -14 10 -14 7 0 -3 -11 2 -24 10 -18 12 -30 13 -50
5 -40 -15 -42 -13 -12 11 22 17 29 19 42 9 8 -7 17 -10 21 -7 3 4 -2 9 -11 13
-9 3 -16 13 -16 21 0 9 -8 22 -17 29 -20 15 -87 19 -79 5 7 -11 -54 -22 -109
-20 -22 1 -52 -4 -65 -11 -33 -18 -72 -13 -142 16 -32 13 -77 24 -102 24 -42
0 -48 -4 -101 -62 l-56 -63 -182 -6 c-100 -3 -206 -12 -234 -19 -57 -15 -103
-4 -103 24 0 12 -11 13 -55 9 -66 -7 -61 -17 -107 198 -28 130 -36 152 -55
160 -29 11 -37 42 -19 78 20 37 20 49 2 125 -8 34 -25 105 -37 159 -18 81 -24
95 -34 81 -11 -16 -12 -16 -18 1 -4 9 -13 15 -21 12 -11 -4 -13 1 -10 19 4 22
2 25 -16 19 -11 -4 -20 -2 -20 4 0 7 -8 7 -23 2 -31 -12 -57 2 -31 17 10 6 16
13 12 17 -3 3 -16 0 -27 -7 -18 -11 -23 -11 -31 2 -8 13 -11 13 -19 1 -6 -10
-14 -11 -27 -3 -13 7 -21 6 -32 -4 -7 -8 -31 -14 -52 -14 -28 0 -42 -5 -49
-19 -6 -10 -7 -21 -4 -25 3 -3 1 -6 -5 -6 -7 0 -12 4 -12 9 0 6 -9 9 -20 8
-14 -1 -20 -8 -20 -25 0 -21 -3 -23 -27 -17 -15 3 -31 11 -34 17 -5 8 -12 7
-23 -3 -37 -33 -46 -39 -46 -29 0 5 -8 10 -17 10 -9 0 -25 7 -35 17 -17 15
-20 15 -41 -5 -13 -12 -37 -27 -54 -33 l-32 -10 -1 -231 -1 -231 43 48 c24 26
49 58 56 71 7 13 25 27 40 30 15 4 42 20 59 37 l33 31 53 -17 c30 -9 64 -17
76 -17 12 0 32 -7 44 -15 12 -8 40 -16 61 -19 58 -7 136 -29 136 -38 0 -4 -11
-15 -24 -23 -24 -16 -76 -12 -76 6 0 6 -10 9 -23 7 -27 -3 -107 22 -107 34 0
4 -7 8 -16 8 -8 0 -13 -4 -9 -9 3 -5 -5 -17 -17 -26 l-23 -15 23 -7 c15 -3 21
-11 18 -20 -3 -8 -6 -19 -6 -24 0 -5 -8 -9 -18 -9 -27 0 -56 -35 -49 -60 6
-22 -3 -26 -20 -9 -8 8 -14 6 -22 -10 -7 -13 -17 -18 -28 -14 -10 4 -14 2 -10
-4 7 -12 -19 -27 -43 -25 -9 1 -10 -1 -3 -4 8 -4 9 -13 2 -33 -6 -18 -6 -37 0
-54 7 -18 7 -27 0 -27 -5 0 -12 7 -15 15 -4 8 -14 15 -24 15 -19 0 -34 -25
-24 -41 3 -5 1 -9 -4 -9 -5 0 -9 -13 -8 -29 0 -24 5 -30 21 -28 11 1 19 -3 18
-10 -2 -7 2 -13 7 -13 6 0 10 5 10 10 0 6 7 10 15 10 8 0 15 -7 15 -15 0 -8 7
-15 16 -15 8 0 13 -4 10 -9 -3 -5 10 -11 29 -13 22 -2 36 1 39 9 6 14 36 18
36 5 0 -5 10 -14 23 -20 18 -9 7 -11 -52 -6 -41 2 -81 10 -88 16 -7 6 -13 7
-13 3 0 -4 -7 -2 -15 5 -8 6 -19 9 -25 5 -16 -10 -82 4 -75 16 4 5 -5 4 -19
-3 -23 -10 -26 -18 -26 -58 l0 -46 93 -2 c51 0 106 -6 121 -12 15 -5 44 -11
64 -11 l37 -2 -35 -7 c-26 -6 -14 -8 50 -9 47 -1 92 -6 100 -11 13 -9 13 -10
0 -11 -24 -1 21 -17 52 -18 14 -1 46 -10 71 -20 46 -20 66 -53 46 -77 -7 -9
-7 -19 -1 -31 18 -32 26 -199 12 -233 -14 -33 -32 -37 -90 -20 -30 9 -92 24
-250 60 -19 5 -84 22 -145 39 -130 36 -125 36 -125 14 1 -33 34 -61 110 -92
65 -26 182 -54 207 -50 24 4 66 -2 56 -9 -6 -4 20 -7 57 -7 79 0 123 -23 128
-68 l3 -27 320 0 320 0 -15 22 c-9 12 -16 41 -16 64 0 34 -4 43 -26 53 -22 10
-25 16 -19 39 3 15 18 36 32 48 17 13 22 23 15 28 -18 11 0 58 75 186 14 25
37 54 51 65 14 11 36 30 48 41 12 12 46 30 74 40 50 18 52 18 65 1 7 -10 28
-21 46 -24 35 -5 112 15 104 27 -6 10 63 1 98 -14 26 -10 28 -15 32 -79 3 -51
1 -67 -10 -67 -25 0 -23 -27 4 -53 16 -14 41 -51 57 -81 16 -31 36 -56 44 -57
11 0 11 -2 2 -6 -10 -4 -10 -8 -1 -19 9 -11 9 -18 1 -26 -9 -9 -12 -9 -12 -1
0 11 -20 21 -60 30 -18 5 -25 5 -70 -3 -26 -4 -41 -1 -57 14 -14 12 -19 22
-13 28 6 6 2 10 -10 11 -11 1 -20 -2 -20 -8 0 -5 -10 -9 -22 -10 -18 -1 -16
-3 8 -8 41 -10 56 -20 48 -33 -4 -6 4 -19 17 -29 23 -17 23 -19 7 -46 -14 -24
-25 -29 -70 -33 -29 -3 -60 -10 -69 -15 -23 -14 -89 -73 -89 -80 0 -3 231 -5
513 -5 l512 0 33 48 c81 119 99 137 155 166 67 34 74 54 18 52 -21 0 -46 5
-54 13 -14 11 -59 82 -129 205 -10 17 -18 46 -18 66 l0 34 29 -32 c21 -23 39
-32 60 -32 17 0 31 -5 31 -11 0 -5 5 -7 10 -4 6 3 10 1 10 -4 0 -6 7 -11 15
-11 21 0 82 -64 82 -87 0 -10 -4 -23 -9 -30 -30 -38 54 -1 100 44 7 7 25 16
40 20 15 3 37 13 49 20 12 8 30 13 40 11 10 -3 31 2 46 9 16 8 35 12 43 9 7
-3 16 -1 19 3 4 7 82 33 110 36 59 7 135 39 113 48 -7 3 -8 6 -2 6 6 1 17 -5
24 -13 6 -8 18 -12 27 -9 12 5 12 7 1 14 -8 6 4 9 32 8 54 -2 76 3 93 20 9 9
9 14 -3 21 -12 8 -12 10 -1 10 11 0 11 3 1 15 -7 9 -11 18 -8 20 7 8 38 -5 38
-16 0 -4 11 -20 25 -35 14 -15 25 -31 25 -37 0 -14 -72 -77 -90 -78 -51 -5
-63 -7 -69 -16 -7 -11 -103 -50 -146 -59 -16 -3 -49 -14 -72 -25 -24 -10 -48
-19 -55 -19 -14 -1 -237 -76 -243 -82 -2 -2 -2 -14 2 -27 7 -28 0 -30 224 48
97 33 246 94 330 134 233 112 244 116 302 123 46 5 61 13 96 46 22 22 41 44
41 48 0 18 36 14 52 -5 19 -24 68 -128 68 -144 0 -6 4 -11 8 -11 15 0 44 -83
44 -124 0 -21 -6 -42 -13 -47 -9 -6 -4 -7 14 -3 33 8 67 -18 66 -50 0 -11 5
-39 11 -61 6 -22 11 -48 11 -57 0 -10 4 -20 10 -23 5 -4 9 -22 9 -40 0 -19 8
-50 17 -70 l17 -35 73 0 73 0 0 616 c0 547 -2 615 -15 604 -8 -7 -15 -19 -15
-26 0 -27 -42 -11 -96 38 l-21 19 21 44 c11 25 26 45 32 45 7 0 15 16 18 36 7
34 36 74 55 74 5 0 12 -8 14 -17 3 -10 5 62 6 160 0 97 -1 177 -3 177 -2 0
-23 -29 -46 -65 -47 -71 -85 -93 -49 -27 12 20 25 41 30 46 5 6 9 16 9 24 0 8
14 31 30 52 l30 38 0 333 0 333 -36 -35 c-36 -34 -164 -220 -164 -238 0 -5 -5
-11 -11 -13 -6 -2 -42 -55 -78 -118 -37 -63 -72 -115 -78 -115 -6 0 -15 -4
-20 -9 -5 -5 -3 -6 5 -2 6 4 12 2 12 -4 0 -6 -7 -13 -16 -17 -8 -3 -13 -11
-10 -19 5 -14 -17 -37 -27 -27 -4 3 -7 1 -7 -5 0 -7 6 -12 13 -12 7 -1 6 -5
-5 -14 -9 -7 -33 -44 -53 -82 -21 -38 -41 -73 -46 -79 -16 -16 -68 50 -90 112
-22 65 -24 113 -5 164 12 34 177 319 251 434 203 316 250 386 280 420 20 22
46 57 60 78 l25 38 0 649 0 650 -818 0 -818 0 -13 -77z m474 -2393 c3 -6 -1
-7 -9 -4 -18 7 -21 14 -7 14 6 0 13 -4 16 -10z m89 -22 c9 -12 16 -34 16 -49
0 -15 6 -29 14 -32 8 -3 17 -20 21 -37 8 -38 29 -51 128 -81 42 -12 76 -27 74
-32 -1 -5 -30 -20 -62 -32 -99 -37 -278 -148 -287 -177 -3 -9 -31 -4 -94 15
-157 48 -150 48 -206 -14 -51 -58 -57 -69 -33 -69 8 0 15 -5 15 -12 0 -18 42
-58 61 -58 10 0 21 -4 24 -10 3 -5 -1 -10 -10 -10 -10 0 -39 -11 -67 -25 -28
-14 -67 -25 -89 -25 -21 0 -39 -4 -39 -10 0 -18 -29 -10 -45 13 -8 12 -36 29
-62 38 -58 19 -74 40 -49 65 10 9 28 33 42 53 13 20 37 54 53 76 26 34 78 117
116 185 18 31 37 50 50 50 15 0 15 -31 0 -43 -23 -18 79 3 220 47 83 25 160
46 172 46 12 0 25 6 29 13 4 6 4 9 -1 5 -4 -4 -16 3 -25 15 -13 16 -15 24 -7
29 9 6 8 8 -1 8 -7 0 -10 5 -7 10 3 6 2 10 -3 10 -16 0 -22 30 -9 45 18 21 44
18 61 -7z m909 -180 c-21 -29 -46 -62 -55 -72 -10 -11 -18 -26 -18 -35 0 -8
-3 -11 -6 -8 -8 7 15 67 26 67 3 0 13 12 20 28 17 32 50 72 62 72 4 0 -9 -24
-29 -52z m-3470 -118 c3 -13 0 -20 -8 -20 -7 0 -20 -3 -29 -6 -14 -5 -14 -3 0
25 17 33 28 34 37 1z m-395 13 c-10 -2 -26 -2 -35 0 -10 3 -2 5 17 5 19 0 27
-2 18 -5z m3372 -19 c0 -17 -33 -43 -75 -57 -21 -8 -44 -22 -49 -32 -6 -11
-21 -27 -33 -37 -31 -26 -86 -98 -80 -104 8 -9 56 29 57 44 0 7 4 11 8 8 10
-6 52 38 52 54 0 6 7 10 16 10 11 0 15 6 12 18 -3 11 0 19 8 19 7 0 11 -5 8
-11 -3 -6 1 -3 9 7 8 10 28 19 43 20 28 2 29 -1 42 -62 12 -62 12 -64 -14 -98
-34 -45 -66 -56 -136 -48 -49 6 -58 5 -58 -9 0 -12 10 -16 39 -16 52 0 60 -16
18 -34 -19 -7 -55 -34 -80 -59 -26 -25 -47 -42 -47 -39 0 4 -13 -7 -28 -24
-16 -18 -42 -34 -62 -39 -19 -4 -67 -18 -106 -31 -39 -13 -80 -24 -92 -24 -11
0 -65 -15 -119 -34 -54 -19 -127 -42 -163 -51 -36 -9 -99 -27 -140 -40 -41
-12 -77 -18 -78 -14 -2 5 -8 7 -13 3 -5 -3 -9 -1 -9 4 0 5 9 12 20 15 11 3 20
1 20 -4 0 -14 105 30 143 60 11 10 17 10 17 3 0 -7 8 -12 18 -12 14 0 15 2 2
10 -11 7 -6 10 21 10 32 0 80 25 99 52 3 3 18 5 33 4 15 -2 27 1 27 5 0 5 7 9
15 9 7 0 18 7 23 16 6 11 12 13 16 6 4 -6 -6 -18 -21 -26 -19 -10 -22 -15 -11
-16 18 0 58 45 58 66 0 8 9 14 21 14 11 0 17 5 14 10 -4 6 -11 7 -17 4 -8 -5
-9 -1 -5 10 4 10 10 28 13 41 4 17 19 29 52 41 26 10 52 24 59 32 6 8 17 11
24 6 8 -4 10 -3 5 4 -10 16 23 82 40 82 7 0 21 12 31 28 9 15 32 42 50 61 18
19 33 40 33 46 0 19 33 51 60 60 14 4 37 16 53 27 15 11 27 17 27 13 0 -3 8
-1 18 4 23 14 112 10 112 -5z m394 -29 c-4 -8 -10 -15 -15 -15 -4 0 -6 7 -3
15 4 8 10 15 15 15 4 0 6 -7 3 -15z m6 -89 c0 -8 -4 -17 -9 -20 -5 -3 -23 -31
-40 -61 -17 -30 -35 -55 -40 -55 -23 0 -20 23 8 64 17 25 31 49 31 53 0 13 22
33 37 33 7 0 13 -6 13 -14z m-3273 -12 c-3 -3 -12 -4 -19 -1 -8 3 -5 6 6 6 11
1 17 -2 13 -5z m2314 -65 c-13 -10 -28 -19 -35 -19 -6 1 1 8 17 16 15 8 27 20
27 26 0 6 3 8 8 4 4 -4 -4 -16 -17 -27z m-66 -219 c4 -6 -6 -10 -22 -9 -25 0
-26 1 -8 9 11 5 21 9 22 9 1 1 5 -3 8 -9z m-187 -61 c-2 -6 -8 -10 -13 -10 -5
0 -11 4 -13 10 -2 6 4 11 13 11 9 0 15 -5 13 -11z m-2508 -19 c0 -5 -2 -10 -4
-10 -3 0 -8 5 -11 10 -3 6 -1 10 4 10 6 0 11 -4 11 -10z m460 -10 c0 -5 -6
-24 -14 -42 -8 -18 -20 -47 -27 -64 -17 -42 -43 -58 -70 -43 l-21 11 21 19
c12 11 21 26 21 35 0 8 7 17 15 20 10 4 13 14 9 30 -5 19 -1 26 17 33 32 13
49 13 49 1z m1797 -56 c-3 -3 -12 -4 -19 -1 -8 3 -5 6 6 6 11 1 17 -2 13 -5z
m-2377 -28 c0 -3 -4 -8 -10 -11 -5 -3 -10 -1 -10 4 0 6 5 11 10 11 6 0 10 -2
10 -4z m460 -77 c0 -5 5 -7 10 -4 6 3 10 1 10 -4 0 -6 -9 -11 -20 -11 -11 0
-20 -4 -20 -10 0 -12 -60 -44 -68 -36 -3 3 0 6 7 6 7 0 10 4 6 9 -3 5 3 12 14
16 10 3 21 15 24 25 5 21 37 28 37 9z m1660 -115 c0 -2 -9 -4 -21 -4 -11 0
-18 4 -14 10 5 8 35 3 35 -6z m-1905 -23 c17 -4 39 -5 50 -1 26 10 56 -6 49
-25 -8 -20 -38 -19 -69 1 -13 9 -33 13 -43 10 -13 -4 -22 -1 -26 9 -6 17 -2
18 39 6z m92 -127 c-3 -3 -12 -4 -19 -1 -8 3 -5 6 6 6 11 1 17 -2 13 -5z
m1573 -164 c0 -5 -8 -11 -18 -14 -9 -3 -32 -19 -50 -35 -17 -16 -34 -25 -37
-20 -4 5 -25 9 -48 10 -41 1 -41 1 -15 12 16 6 27 17 25 26 -1 8 6 17 17 19
10 2 16 0 13 -6 -4 -5 5 -15 18 -22 23 -12 27 -11 52 17 26 28 43 33 43 13z
m-1210 -187 c0 -10 -5 -25 -10 -33 -7 -11 -10 -7 -10 18 0 17 5 32 10 32 6 0
10 -8 10 -17z m870 -92 c0 -12 -20 -25 -27 -18 -7 7 6 27 18 27 5 0 9 -4 9 -9z"/>
<path d="M3310 1145 c-11 -13 -10 -14 4 -9 9 3 16 10 16 15 0 13 -6 11 -20 -6z"/>
<path d="M3283 1105 c-9 -9 -9 -16 -2 -20 11 -7 39 12 39 26 0 14 -24 10 -37
-6z"/>
<path d="M3090 1050 c0 -5 5 -10 10 -10 6 0 10 5 10 10 0 6 -4 10 -10 10 -5 0
-10 -4 -10 -10z"/>
<path d="M3118 983 c7 -3 16 -2 19 1 4 3 -2 6 -13 5 -11 0 -14 -3 -6 -6z"/>
<path d="M2117 3246 c-21 -16 -22 -26 -3 -26 8 0 17 7 20 16 9 23 4 25 -17 10z"/>
<path d="M2557 2693 c-16 -3 -30 -10 -33 -17 -3 -7 12 -48 32 -92 20 -43 39
-100 42 -125 4 -43 2 -49 -44 -100 -26 -30 -54 -60 -61 -67 -19 -19 -17 -136
2 -156 21 -21 54 -29 68 -18 7 6 41 58 77 116 43 71 72 108 88 112 24 7 29 20
10 27 -9 2 -3 20 20 56 33 54 37 67 24 73 -6 3 -34 43 -85 123 -24 38 -69 75
-91 74 -11 -1 -34 -4 -49 -6z"/>
<path d="M2245 2643 c-88 -48 -232 -114 -265 -122 -49 -11 -131 -61 -254 -155
-59 -46 -108 -76 -122 -76 -17 0 -24 -6 -24 -20 0 -27 20 -25 53 6 25 23 40
27 113 32 47 3 116 -1 157 -7 54 -10 95 -10 165 -2 93 10 94 11 155 63 34 29
66 59 70 65 4 7 18 13 31 13 28 0 72 33 81 60 4 13 -4 35 -22 62 -16 24 -34
55 -41 71 -14 32 -50 36 -97 10z"/>
<path d="M390 1640 c0 -5 5 -10 10 -10 6 0 10 5 10 10 0 6 -4 10 -10 10 -5 0
-10 -4 -10 -10z"/>
<path d="M713 1595 c0 -8 4 -15 9 -15 5 0 6 -4 3 -10 -3 -6 1 -7 9 -4 12 5 13
11 5 25 -12 23 -26 25 -26 4z"/>
<path d="M268 1553 c7 -3 16 -2 19 1 4 3 -2 6 -13 5 -11 0 -14 -3 -6 -6z"/>
<path d="M4273 1393 c9 -9 19 -14 23 -11 10 10 -6 28 -24 28 -15 0 -15 -1 1
-17z"/>
<path d="M4250 1331 c0 -12 29 -23 41 -15 5 3 7 10 4 15 -8 12 -45 12 -45 0z"/>
<path d="M295 1101 c-7 -12 12 -24 25 -16 11 7 4 25 -10 25 -5 0 -11 -4 -15
-9z"/>
<path d="M2455 780 c-3 -5 -2 -10 4 -10 5 0 13 5 16 10 3 6 2 10 -4 10 -5 0
-13 -4 -16 -10z"/>
<path d="M0 560 c0 -5 3 -10 8 -10 13 0 30 -53 37 -112 4 -32 11 -58 16 -58 6
0 26 7 46 15 50 21 88 19 189 -11 49 -15 103 -30 119 -35 17 -4 48 -14 71 -20
23 -7 49 -9 59 -5 17 6 17 7 -1 27 -14 16 -16 24 -7 38 9 14 7 20 -9 30 -16
10 -18 15 -8 21 8 5 -26 16 -86 30 -54 12 -110 26 -124 31 -44 16 -264 69
-287 69 -13 0 -23 -4 -23 -10z"/>
<path d="M343 563 c9 -2 23 -2 30 0 6 3 -1 5 -18 5 -16 0 -22 -2 -12 -5z"/>
<path d="M1410 264 c0 -14 6 -24 15 -24 8 0 19 -9 25 -20 8 -14 17 -19 30 -15
14 4 19 0 22 -17 3 -21 9 -23 62 -24 32 -1 54 1 48 5 -6 4 -10 15 -8 26 4 24
-10 35 -45 35 -15 0 -32 7 -39 15 -10 12 -10 15 1 15 8 0 9 3 4 9 -6 5 -34 11
-62 13 -50 5 -53 4 -53 -18z"/>
</g>
</svg>
